<?xml version="1.0" encoding="UTF-8"?>
<!-- PixelCluster - Diagram 3: interaction modes (v1, 2026-05-29). Generated, seed 42.
     Spec: launch/diagram-3_interaction-modes_spec_v1.md. Engine-true (ui/app.js). 16:9 master. Not published. -->
<svg xmlns="http://www.w3.org/2000/svg" viewBox="0 0 1600 900" width="1600" height="900" font-family="'Helvetica Neue', Helvetica, Arial, sans-serif">
  <defs>
    <marker id="arrow" viewBox="0 0 10 10" refX="8" refY="5" markerWidth="6" markerHeight="6" orient="auto-start-reverse">
      <path d="M0,0 L10,5 L0,10 z" fill="#8fb5e8"/>
    </marker>
    <radialGradient id="skyPt" cx="50%" cy="50%" r="50%">
      <stop offset="0%" stop-color="#8fb5e8" stop-opacity="1"/>
      <stop offset="60%" stop-color="#8fb5e8" stop-opacity="0.9"/>
      <stop offset="100%" stop-color="#8fb5e8" stop-opacity="0"/>
    </radialGradient>
  </defs>

  <rect x="0" y="0" width="1600" height="900" fill="#0a0a0b"/>

  <text x="64" y="66" fill="#6b665e" font-size="14" letter-spacing="3" font-family="ui-monospace,'SF Mono',Menlo,monospace">PIXELCLUSTER — INTERACTION</text>
  <text x="64" y="150" fill="#ece8df" font-size="46" font-weight="200" letter-spacing="-1.5">How the field moves</text>
  <text x="64" y="192" fill="#9a948a" font-size="20" font-weight="300">The field always drifts. The cursor swirls, pushes, or pulls the points near it, and they settle back.</text>

  <svg x="64" y="300" width="250" height="180" viewBox="0 0 250 180">
    <rect x="0" y="0" width="250" height="180" fill="#0a0a0b"/>
      <circle cx="32.0" cy="30.0" r="3.0" fill="url(#skyPt)"/>
      <line x1="32.0" y1="30.0" x2="38.9" y2="34.0" stroke="#8fb5e8" stroke-width="1.4" opacity="0.8" marker-end="url(#arrow)"/>
      <circle cx="69.0" cy="30.0" r="3.0" fill="url(#skyPt)"/>
      <line x1="69.0" y1="30.0" x2="68.7" y2="22.0" stroke="#8fb5e8" stroke-width="1.4" opacity="0.8" marker-end="url(#arrow)"/>
      <circle cx="106.0" cy="30.0" r="3.0" fill="url(#skyPt)"/>
      <line x1="106.0" y1="30.0" x2="113.0" y2="26.1" stroke="#8fb5e8" stroke-width="1.4" opacity="0.8" marker-end="url(#arrow)"/>
      <circle cx="143.0" cy="30.0" r="3.0" fill="url(#skyPt)"/>
      <line x1="143.0" y1="30.0" x2="150.7" y2="32.3" stroke="#8fb5e8" stroke-width="1.4" opacity="0.8" marker-end="url(#arrow)"/>
      <circle cx="180.0" cy="30.0" r="3.0" fill="url(#skyPt)"/>
      <line x1="180.0" y1="30.0" x2="178.3" y2="22.2" stroke="#8fb5e8" stroke-width="1.4" opacity="0.8" marker-end="url(#arrow)"/>
      <circle cx="217.0" cy="30.0" r="3.0" fill="url(#skyPt)"/>
      <line x1="217.0" y1="30.0" x2="225.0" y2="29.4" stroke="#8fb5e8" stroke-width="1.4" opacity="0.8" marker-end="url(#arrow)"/>
      <circle cx="32.0" cy="72.0" r="3.0" fill="url(#skyPt)"/>
      <line x1="32.0" y1="72.0" x2="32.5" y2="80.0" stroke="#8fb5e8" stroke-width="1.4" opacity="0.8" marker-end="url(#arrow)"/>
      <circle cx="69.0" cy="72.0" r="3.0" fill="url(#skyPt)"/>
      <line x1="69.0" y1="72.0" x2="75.5" y2="67.3" stroke="#8fb5e8" stroke-width="1.4" opacity="0.8" marker-end="url(#arrow)"/>
      <circle cx="106.0" cy="72.0" r="3.0" fill="url(#skyPt)"/>
      <line x1="106.0" y1="72.0" x2="113.1" y2="75.7" stroke="#8fb5e8" stroke-width="1.4" opacity="0.8" marker-end="url(#arrow)"/>
      <circle cx="143.0" cy="72.0" r="3.0" fill="url(#skyPt)"/>
      <line x1="143.0" y1="72.0" x2="145.3" y2="79.7" stroke="#8fb5e8" stroke-width="1.4" opacity="0.8" marker-end="url(#arrow)"/>
      <circle cx="180.0" cy="72.0" r="3.0" fill="url(#skyPt)"/>
      <line x1="180.0" y1="72.0" x2="185.6" y2="66.3" stroke="#8fb5e8" stroke-width="1.4" opacity="0.8" marker-end="url(#arrow)"/>
      <circle cx="217.0" cy="72.0" r="3.0" fill="url(#skyPt)"/>
      <line x1="217.0" y1="72.0" x2="221.9" y2="78.3" stroke="#8fb5e8" stroke-width="1.4" opacity="0.8" marker-end="url(#arrow)"/>
      <circle cx="32.0" cy="114.0" r="3.0" fill="url(#skyPt)"/>
      <line x1="32.0" y1="114.0" x2="36.5" y2="120.6" stroke="#8fb5e8" stroke-width="1.4" opacity="0.8" marker-end="url(#arrow)"/>
      <circle cx="69.0" cy="114.0" r="3.0" fill="url(#skyPt)"/>
      <line x1="69.0" y1="114.0" x2="72.2" y2="106.7" stroke="#8fb5e8" stroke-width="1.4" opacity="0.8" marker-end="url(#arrow)"/>
      <circle cx="106.0" cy="114.0" r="3.0" fill="url(#skyPt)"/>
      <line x1="106.0" y1="114.0" x2="114.0" y2="113.5" stroke="#8fb5e8" stroke-width="1.4" opacity="0.8" marker-end="url(#arrow)"/>
      <circle cx="143.0" cy="114.0" r="3.0" fill="url(#skyPt)"/>
      <line x1="143.0" y1="114.0" x2="148.9" y2="119.4" stroke="#8fb5e8" stroke-width="1.4" opacity="0.8" marker-end="url(#arrow)"/>
      <circle cx="180.0" cy="114.0" r="3.0" fill="url(#skyPt)"/>
      <line x1="180.0" y1="114.0" x2="181.9" y2="106.2" stroke="#8fb5e8" stroke-width="1.4" opacity="0.8" marker-end="url(#arrow)"/>
      <circle cx="217.0" cy="114.0" r="3.0" fill="url(#skyPt)"/>
      <line x1="217.0" y1="114.0" x2="224.4" y2="116.9" stroke="#8fb5e8" stroke-width="1.4" opacity="0.8" marker-end="url(#arrow)"/>
      <circle cx="32.0" cy="156.0" r="3.0" fill="url(#skyPt)"/>
      <line x1="32.0" y1="156.0" x2="36.1" y2="162.9" stroke="#8fb5e8" stroke-width="1.4" opacity="0.8" marker-end="url(#arrow)"/>
      <circle cx="69.0" cy="156.0" r="3.0" fill="url(#skyPt)"/>
      <line x1="69.0" y1="156.0" x2="72.6" y2="148.9" stroke="#8fb5e8" stroke-width="1.4" opacity="0.8" marker-end="url(#arrow)"/>
      <circle cx="106.0" cy="156.0" r="3.0" fill="url(#skyPt)"/>
      <line x1="106.0" y1="156.0" x2="114.0" y2="156.0" stroke="#8fb5e8" stroke-width="1.4" opacity="0.8" marker-end="url(#arrow)"/>
      <circle cx="143.0" cy="156.0" r="3.0" fill="url(#skyPt)"/>
      <line x1="143.0" y1="156.0" x2="148.5" y2="161.8" stroke="#8fb5e8" stroke-width="1.4" opacity="0.8" marker-end="url(#arrow)"/>
      <circle cx="180.0" cy="156.0" r="3.0" fill="url(#skyPt)"/>
      <line x1="180.0" y1="156.0" x2="182.4" y2="148.4" stroke="#8fb5e8" stroke-width="1.4" opacity="0.8" marker-end="url(#arrow)"/>
      <circle cx="217.0" cy="156.0" r="3.0" fill="url(#skyPt)"/>
      <line x1="217.0" y1="156.0" x2="224.3" y2="159.4" stroke="#8fb5e8" stroke-width="1.4" opacity="0.8" marker-end="url(#arrow)"/>
  </svg>
  <rect x="64" y="300" width="250" height="180" fill="none" stroke="#2a2a30" stroke-width="1.5"/>
  <text x="189.0" y="505" fill="#ece8df" font-size="18" font-weight="300" text-anchor="middle" letter-spacing="1">DRIFT</text>
  <text x="189.0" y="528" fill="#6b665e" font-size="12.5" text-anchor="middle" font-family="ui-monospace,'SF Mono',Menlo,monospace">turbulence, always on</text>
  <svg x="369.5" y="300" width="250" height="180" viewBox="0 0 250 180">
    <rect x="0" y="0" width="250" height="180" fill="#0a0a0b"/>
      <circle cx="125" cy="90" r="88.0" fill="none" stroke="#6b665e" stroke-width="1" stroke-dasharray="4 4" opacity="0.5"/>
      <circle cx="32.0" cy="30.0" r="3.0" fill="url(#skyPt)"/>
      <circle cx="69.0" cy="30.0" r="3.0" fill="url(#skyPt)"/>
      <line x1="69.0" y1="30.0" x2="70.2" y2="29.3" stroke="#8fb5e8" stroke-width="1.4" opacity="0.95" marker-end="url(#arrow)"/>
      <circle cx="106.0" cy="30.0" r="3.0" fill="url(#skyPt)"/>
      <line x1="106.0" y1="30.0" x2="111.7" y2="29.6" stroke="#8fb5e8" stroke-width="1.4" opacity="0.95" marker-end="url(#arrow)"/>
      <circle cx="143.0" cy="30.0" r="3.0" fill="url(#skyPt)"/>
      <line x1="143.0" y1="30.0" x2="148.0" y2="32.9" stroke="#8fb5e8" stroke-width="1.4" opacity="0.95" marker-end="url(#arrow)"/>
      <circle cx="180.0" cy="30.0" r="3.0" fill="url(#skyPt)"/>
      <line x1="180.0" y1="30.0" x2="180.8" y2="31.2" stroke="#8fb5e8" stroke-width="1.4" opacity="0.95" marker-end="url(#arrow)"/>
      <circle cx="217.0" cy="30.0" r="3.0" fill="url(#skyPt)"/>
      <circle cx="32.0" cy="72.0" r="3.0" fill="url(#skyPt)"/>
      <circle cx="69.0" cy="72.0" r="3.0" fill="url(#skyPt)"/>
      <line x1="69.0" y1="72.0" x2="72.4" y2="66.3" stroke="#8fb5e8" stroke-width="1.4" opacity="0.95" marker-end="url(#arrow)"/>
      <circle cx="106.0" cy="72.0" r="3.0" fill="url(#skyPt)"/>
      <line x1="106.0" y1="72.0" x2="117.8" y2="64.3" stroke="#8fb5e8" stroke-width="1.4" opacity="0.95" marker-end="url(#arrow)"/>
      <circle cx="143.0" cy="72.0" r="3.0" fill="url(#skyPt)"/>
      <line x1="143.0" y1="72.0" x2="150.4" y2="84.1" stroke="#8fb5e8" stroke-width="1.4" opacity="0.95" marker-end="url(#arrow)"/>
      <circle cx="180.0" cy="72.0" r="3.0" fill="url(#skyPt)"/>
      <line x1="180.0" y1="72.0" x2="180.6" y2="78.8" stroke="#8fb5e8" stroke-width="1.4" opacity="0.95" marker-end="url(#arrow)"/>
      <circle cx="217.0" cy="72.0" r="3.0" fill="url(#skyPt)"/>
      <circle cx="32.0" cy="114.0" r="3.0" fill="url(#skyPt)"/>
      <circle cx="69.0" cy="114.0" r="3.0" fill="url(#skyPt)"/>
      <line x1="69.0" y1="114.0" x2="68.0" y2="107.9" stroke="#8fb5e8" stroke-width="1.4" opacity="0.95" marker-end="url(#arrow)"/>
      <circle cx="106.0" cy="114.0" r="3.0" fill="url(#skyPt)"/>
      <line x1="106.0" y1="114.0" x2="97.9" y2="103.7" stroke="#8fb5e8" stroke-width="1.4" opacity="0.95" marker-end="url(#arrow)"/>
      <circle cx="143.0" cy="114.0" r="3.0" fill="url(#skyPt)"/>
      <line x1="143.0" y1="114.0" x2="130.9" y2="119.2" stroke="#8fb5e8" stroke-width="1.4" opacity="0.95" marker-end="url(#arrow)"/>
      <circle cx="180.0" cy="114.0" r="3.0" fill="url(#skyPt)"/>
      <line x1="180.0" y1="114.0" x2="176.2" y2="119.1" stroke="#8fb5e8" stroke-width="1.4" opacity="0.95" marker-end="url(#arrow)"/>
      <circle cx="217.0" cy="114.0" r="3.0" fill="url(#skyPt)"/>
      <circle cx="32.0" cy="156.0" r="3.0" fill="url(#skyPt)"/>
      <circle cx="69.0" cy="156.0" r="3.0" fill="url(#skyPt)"/>
      <line x1="69.0" y1="156.0" x2="68.8" y2="155.7" stroke="#8fb5e8" stroke-width="1.4" opacity="0.95" marker-end="url(#arrow)"/>
      <circle cx="106.0" cy="156.0" r="3.0" fill="url(#skyPt)"/>
      <line x1="106.0" y1="156.0" x2="102.2" y2="153.8" stroke="#8fb5e8" stroke-width="1.4" opacity="0.95" marker-end="url(#arrow)"/>
      <circle cx="143.0" cy="156.0" r="3.0" fill="url(#skyPt)"/>
      <line x1="143.0" y1="156.0" x2="138.5" y2="156.1" stroke="#8fb5e8" stroke-width="1.4" opacity="0.95" marker-end="url(#arrow)"/>
      <circle cx="180.0" cy="156.0" r="3.0" fill="url(#skyPt)"/>
      <line x1="180.0" y1="156.0" x2="179.6" y2="156.2" stroke="#8fb5e8" stroke-width="1.4" opacity="0.95" marker-end="url(#arrow)"/>
      <circle cx="217.0" cy="156.0" r="3.0" fill="url(#skyPt)"/>
      <circle cx="125" cy="90" r="6" fill="none" stroke="#78b4ff" stroke-width="1.6"/>
      <circle cx="125" cy="90" r="1.8" fill="#78b4ff"/>
  </svg>
  <rect x="369.5" y="300" width="250" height="180" fill="none" stroke="#2a2a30" stroke-width="1.5"/>
  <text x="494.5" y="505" fill="#ece8df" font-size="18" font-weight="300" text-anchor="middle" letter-spacing="1">SWIRL</text>
  <text x="494.5" y="528" fill="#6b665e" font-size="12.5" text-anchor="middle" font-family="ui-monospace,'SF Mono',Menlo,monospace">no button</text>
  <svg x="675" y="300" width="250" height="180" viewBox="0 0 250 180">
    <rect x="0" y="0" width="250" height="180" fill="#0a0a0b"/>
      <circle cx="125" cy="90" r="88.0" fill="none" stroke="#6b665e" stroke-width="1" stroke-dasharray="4 4" opacity="0.5"/>
      <circle cx="32.0" cy="30.0" r="3.0" fill="url(#skyPt)"/>
      <circle cx="69.0" cy="30.0" r="3.0" fill="url(#skyPt)"/>
      <line x1="69.0" y1="30.0" x2="68.1" y2="29.0" stroke="#8fb5e8" stroke-width="1.4" opacity="0.95" marker-end="url(#arrow)"/>
      <circle cx="106.0" cy="30.0" r="3.0" fill="url(#skyPt)"/>
      <line x1="106.0" y1="30.0" x2="104.3" y2="24.6" stroke="#8fb5e8" stroke-width="1.4" opacity="0.95" marker-end="url(#arrow)"/>
      <circle cx="143.0" cy="30.0" r="3.0" fill="url(#skyPt)"/>
      <line x1="143.0" y1="30.0" x2="144.7" y2="24.5" stroke="#8fb5e8" stroke-width="1.4" opacity="0.95" marker-end="url(#arrow)"/>
      <circle cx="180.0" cy="30.0" r="3.0" fill="url(#skyPt)"/>
      <line x1="180.0" y1="30.0" x2="181.0" y2="28.9" stroke="#8fb5e8" stroke-width="1.4" opacity="0.95" marker-end="url(#arrow)"/>
      <circle cx="217.0" cy="30.0" r="3.0" fill="url(#skyPt)"/>
      <circle cx="32.0" cy="72.0" r="3.0" fill="url(#skyPt)"/>
      <circle cx="69.0" cy="72.0" r="3.0" fill="url(#skyPt)"/>
      <line x1="69.0" y1="72.0" x2="62.7" y2="70.0" stroke="#8fb5e8" stroke-width="1.4" opacity="0.95" marker-end="url(#arrow)"/>
      <circle cx="106.0" cy="72.0" r="3.0" fill="url(#skyPt)"/>
      <line x1="106.0" y1="72.0" x2="95.8" y2="62.3" stroke="#8fb5e8" stroke-width="1.4" opacity="0.95" marker-end="url(#arrow)"/>
      <circle cx="143.0" cy="72.0" r="3.0" fill="url(#skyPt)"/>
      <line x1="143.0" y1="72.0" x2="153.1" y2="61.9" stroke="#8fb5e8" stroke-width="1.4" opacity="0.95" marker-end="url(#arrow)"/>
      <circle cx="180.0" cy="72.0" r="3.0" fill="url(#skyPt)"/>
      <line x1="180.0" y1="72.0" x2="186.5" y2="69.9" stroke="#8fb5e8" stroke-width="1.4" opacity="0.95" marker-end="url(#arrow)"/>
      <circle cx="217.0" cy="72.0" r="3.0" fill="url(#skyPt)"/>
      <circle cx="32.0" cy="114.0" r="3.0" fill="url(#skyPt)"/>
      <circle cx="69.0" cy="114.0" r="3.0" fill="url(#skyPt)"/>
      <line x1="69.0" y1="114.0" x2="63.3" y2="116.4" stroke="#8fb5e8" stroke-width="1.4" opacity="0.95" marker-end="url(#arrow)"/>
      <circle cx="106.0" cy="114.0" r="3.0" fill="url(#skyPt)"/>
      <line x1="106.0" y1="114.0" x2="97.9" y2="124.2" stroke="#8fb5e8" stroke-width="1.4" opacity="0.95" marker-end="url(#arrow)"/>
      <circle cx="143.0" cy="114.0" r="3.0" fill="url(#skyPt)"/>
      <line x1="143.0" y1="114.0" x2="150.9" y2="124.5" stroke="#8fb5e8" stroke-width="1.4" opacity="0.95" marker-end="url(#arrow)"/>
      <circle cx="180.0" cy="114.0" r="3.0" fill="url(#skyPt)"/>
      <line x1="180.0" y1="114.0" x2="185.8" y2="116.5" stroke="#8fb5e8" stroke-width="1.4" opacity="0.95" marker-end="url(#arrow)"/>
      <circle cx="217.0" cy="114.0" r="3.0" fill="url(#skyPt)"/>
      <circle cx="32.0" cy="156.0" r="3.0" fill="url(#skyPt)"/>
      <circle cx="69.0" cy="156.0" r="3.0" fill="url(#skyPt)"/>
      <line x1="69.0" y1="156.0" x2="68.8" y2="156.3" stroke="#8fb5e8" stroke-width="1.4" opacity="0.95" marker-end="url(#arrow)"/>
      <circle cx="106.0" cy="156.0" r="3.0" fill="url(#skyPt)"/>
      <line x1="106.0" y1="156.0" x2="104.8" y2="160.2" stroke="#8fb5e8" stroke-width="1.4" opacity="0.95" marker-end="url(#arrow)"/>
      <circle cx="143.0" cy="156.0" r="3.0" fill="url(#skyPt)"/>
      <line x1="143.0" y1="156.0" x2="144.2" y2="160.3" stroke="#8fb5e8" stroke-width="1.4" opacity="0.95" marker-end="url(#arrow)"/>
      <circle cx="180.0" cy="156.0" r="3.0" fill="url(#skyPt)"/>
      <line x1="180.0" y1="156.0" x2="180.3" y2="156.4" stroke="#8fb5e8" stroke-width="1.4" opacity="0.95" marker-end="url(#arrow)"/>
      <circle cx="217.0" cy="156.0" r="3.0" fill="url(#skyPt)"/>
      <circle cx="125" cy="90" r="6" fill="none" stroke="#78b4ff" stroke-width="1.6"/>
      <circle cx="125" cy="90" r="1.8" fill="#78b4ff"/>
  </svg>
  <rect x="675" y="300" width="250" height="180" fill="none" stroke="#2a2a30" stroke-width="1.5"/>
  <text x="800.0" y="505" fill="#ece8df" font-size="18" font-weight="300" text-anchor="middle" letter-spacing="1">PUSH</text>
  <text x="800.0" y="528" fill="#6b665e" font-size="12.5" text-anchor="middle" font-family="ui-monospace,'SF Mono',Menlo,monospace">left click</text>
  <svg x="980.5" y="300" width="250" height="180" viewBox="0 0 250 180">
    <rect x="0" y="0" width="250" height="180" fill="#0a0a0b"/>
      <circle cx="125" cy="90" r="88.0" fill="none" stroke="#6b665e" stroke-width="1" stroke-dasharray="4 4" opacity="0.5"/>
      <circle cx="32.0" cy="30.0" r="3.0" fill="url(#skyPt)"/>
      <circle cx="69.0" cy="30.0" r="3.0" fill="url(#skyPt)"/>
      <line x1="69.0" y1="30.0" x2="69.9" y2="31.0" stroke="#8fb5e8" stroke-width="1.4" opacity="0.95" marker-end="url(#arrow)"/>
      <circle cx="106.0" cy="30.0" r="3.0" fill="url(#skyPt)"/>
      <line x1="106.0" y1="30.0" x2="107.7" y2="35.4" stroke="#8fb5e8" stroke-width="1.4" opacity="0.95" marker-end="url(#arrow)"/>
      <circle cx="143.0" cy="30.0" r="3.0" fill="url(#skyPt)"/>
      <line x1="143.0" y1="30.0" x2="141.3" y2="35.5" stroke="#8fb5e8" stroke-width="1.4" opacity="0.95" marker-end="url(#arrow)"/>
      <circle cx="180.0" cy="30.0" r="3.0" fill="url(#skyPt)"/>
      <line x1="180.0" y1="30.0" x2="179.0" y2="31.1" stroke="#8fb5e8" stroke-width="1.4" opacity="0.95" marker-end="url(#arrow)"/>
      <circle cx="217.0" cy="30.0" r="3.0" fill="url(#skyPt)"/>
      <circle cx="32.0" cy="72.0" r="3.0" fill="url(#skyPt)"/>
      <circle cx="69.0" cy="72.0" r="3.0" fill="url(#skyPt)"/>
      <line x1="69.0" y1="72.0" x2="75.3" y2="74.0" stroke="#8fb5e8" stroke-width="1.4" opacity="0.95" marker-end="url(#arrow)"/>
      <circle cx="106.0" cy="72.0" r="3.0" fill="url(#skyPt)"/>
      <line x1="106.0" y1="72.0" x2="116.2" y2="81.7" stroke="#8fb5e8" stroke-width="1.4" opacity="0.95" marker-end="url(#arrow)"/>
      <circle cx="143.0" cy="72.0" r="3.0" fill="url(#skyPt)"/>
      <line x1="143.0" y1="72.0" x2="132.9" y2="82.1" stroke="#8fb5e8" stroke-width="1.4" opacity="0.95" marker-end="url(#arrow)"/>
      <circle cx="180.0" cy="72.0" r="3.0" fill="url(#skyPt)"/>
      <line x1="180.0" y1="72.0" x2="173.5" y2="74.1" stroke="#8fb5e8" stroke-width="1.4" opacity="0.95" marker-end="url(#arrow)"/>
      <circle cx="217.0" cy="72.0" r="3.0" fill="url(#skyPt)"/>
      <circle cx="32.0" cy="114.0" r="3.0" fill="url(#skyPt)"/>
      <circle cx="69.0" cy="114.0" r="3.0" fill="url(#skyPt)"/>
      <line x1="69.0" y1="114.0" x2="74.7" y2="111.6" stroke="#8fb5e8" stroke-width="1.4" opacity="0.95" marker-end="url(#arrow)"/>
      <circle cx="106.0" cy="114.0" r="3.0" fill="url(#skyPt)"/>
      <line x1="106.0" y1="114.0" x2="114.1" y2="103.8" stroke="#8fb5e8" stroke-width="1.4" opacity="0.95" marker-end="url(#arrow)"/>
      <circle cx="143.0" cy="114.0" r="3.0" fill="url(#skyPt)"/>
      <line x1="143.0" y1="114.0" x2="135.1" y2="103.5" stroke="#8fb5e8" stroke-width="1.4" opacity="0.95" marker-end="url(#arrow)"/>
      <circle cx="180.0" cy="114.0" r="3.0" fill="url(#skyPt)"/>
      <line x1="180.0" y1="114.0" x2="174.2" y2="111.5" stroke="#8fb5e8" stroke-width="1.4" opacity="0.95" marker-end="url(#arrow)"/>
      <circle cx="217.0" cy="114.0" r="3.0" fill="url(#skyPt)"/>
      <circle cx="32.0" cy="156.0" r="3.0" fill="url(#skyPt)"/>
      <circle cx="69.0" cy="156.0" r="3.0" fill="url(#skyPt)"/>
      <line x1="69.0" y1="156.0" x2="69.2" y2="155.7" stroke="#8fb5e8" stroke-width="1.4" opacity="0.95" marker-end="url(#arrow)"/>
      <circle cx="106.0" cy="156.0" r="3.0" fill="url(#skyPt)"/>
      <line x1="106.0" y1="156.0" x2="107.2" y2="151.8" stroke="#8fb5e8" stroke-width="1.4" opacity="0.95" marker-end="url(#arrow)"/>
      <circle cx="143.0" cy="156.0" r="3.0" fill="url(#skyPt)"/>
      <line x1="143.0" y1="156.0" x2="141.8" y2="151.7" stroke="#8fb5e8" stroke-width="1.4" opacity="0.95" marker-end="url(#arrow)"/>
      <circle cx="180.0" cy="156.0" r="3.0" fill="url(#skyPt)"/>
      <line x1="180.0" y1="156.0" x2="179.7" y2="155.6" stroke="#8fb5e8" stroke-width="1.4" opacity="0.95" marker-end="url(#arrow)"/>
      <circle cx="217.0" cy="156.0" r="3.0" fill="url(#skyPt)"/>
      <circle cx="125" cy="90" r="6" fill="none" stroke="#78b4ff" stroke-width="1.6"/>
      <circle cx="125" cy="90" r="1.8" fill="#78b4ff"/>
  </svg>
  <rect x="980.5" y="300" width="250" height="180" fill="none" stroke="#2a2a30" stroke-width="1.5"/>
  <text x="1105.5" y="505" fill="#ece8df" font-size="18" font-weight="300" text-anchor="middle" letter-spacing="1">ATTRACT</text>
  <text x="1105.5" y="528" fill="#6b665e" font-size="12.5" text-anchor="middle" font-family="ui-monospace,'SF Mono',Menlo,monospace">right click</text>
  <svg x="1286" y="300" width="250" height="180" viewBox="0 0 250 180">
    <rect x="0" y="0" width="250" height="180" fill="#0a0a0b"/>
      <circle cx="32.0" cy="30.0" r="2" fill="#6b665e"/>
      <line x1="25.3" y1="22.0" x2="32.0" y2="30.0" stroke="#6b665e" stroke-width="0.9" stroke-dasharray="3 3" opacity="0.7"/>
      <circle cx="25.3" cy="22.0" r="3.0" fill="url(#skyPt)"/>
      <line x1="25.3" y1="22.0" x2="29.0" y2="26.4" stroke="#8fb5e8" stroke-width="1.4" opacity="0.85" marker-end="url(#arrow)"/>
      <circle cx="69.0" cy="30.0" r="2" fill="#6b665e"/>
      <line x1="66.9" y1="43.4" x2="69.0" y2="30.0" stroke="#6b665e" stroke-width="0.9" stroke-dasharray="3 3" opacity="0.7"/>
      <circle cx="66.9" cy="43.4" r="3.0" fill="url(#skyPt)"/>
      <line x1="66.9" y1="43.4" x2="68.0" y2="36.0" stroke="#8fb5e8" stroke-width="1.4" opacity="0.85" marker-end="url(#arrow)"/>
      <circle cx="106.0" cy="30.0" r="2" fill="#6b665e"/>
      <line x1="104.2" y1="9.2" x2="106.0" y2="30.0" stroke="#6b665e" stroke-width="0.9" stroke-dasharray="3 3" opacity="0.7"/>
      <circle cx="104.2" cy="9.2" r="3.0" fill="url(#skyPt)"/>
      <line x1="104.2" y1="9.2" x2="105.2" y2="20.7" stroke="#8fb5e8" stroke-width="1.4" opacity="0.85" marker-end="url(#arrow)"/>
      <circle cx="143.0" cy="30.0" r="2" fill="#6b665e"/>
      <line x1="151.9" y1="22.9" x2="143.0" y2="30.0" stroke="#6b665e" stroke-width="0.9" stroke-dasharray="3 3" opacity="0.7"/>
      <circle cx="151.9" cy="22.9" r="3.0" fill="url(#skyPt)"/>
      <line x1="151.9" y1="22.9" x2="147.0" y2="26.8" stroke="#8fb5e8" stroke-width="1.4" opacity="0.85" marker-end="url(#arrow)"/>
      <circle cx="180.0" cy="30.0" r="2" fill="#6b665e"/>
      <line x1="170.8" y1="34.9" x2="180.0" y2="30.0" stroke="#6b665e" stroke-width="0.9" stroke-dasharray="3 3" opacity="0.7"/>
      <circle cx="170.8" cy="34.9" r="3.0" fill="url(#skyPt)"/>
      <line x1="170.8" y1="34.9" x2="175.8" y2="32.2" stroke="#8fb5e8" stroke-width="1.4" opacity="0.85" marker-end="url(#arrow)"/>
      <circle cx="217.0" cy="30.0" r="2" fill="#6b665e"/>
      <line x1="220.5" y1="47.7" x2="217.0" y2="30.0" stroke="#6b665e" stroke-width="0.9" stroke-dasharray="3 3" opacity="0.7"/>
      <circle cx="220.5" cy="47.7" r="3.0" fill="url(#skyPt)"/>
      <line x1="220.5" y1="47.7" x2="218.6" y2="38.0" stroke="#8fb5e8" stroke-width="1.4" opacity="0.85" marker-end="url(#arrow)"/>
      <circle cx="32.0" cy="72.0" r="2" fill="#6b665e"/>
      <line x1="45.0" y1="74.2" x2="32.0" y2="72.0" stroke="#6b665e" stroke-width="0.9" stroke-dasharray="3 3" opacity="0.7"/>
      <circle cx="45.0" cy="74.2" r="3.0" fill="url(#skyPt)"/>
      <line x1="45.0" y1="74.2" x2="37.8" y2="73.0" stroke="#8fb5e8" stroke-width="1.4" opacity="0.85" marker-end="url(#arrow)"/>
      <circle cx="69.0" cy="72.0" r="2" fill="#6b665e"/>
      <line x1="58.0" y1="56.9" x2="69.0" y2="72.0" stroke="#6b665e" stroke-width="0.9" stroke-dasharray="3 3" opacity="0.7"/>
      <circle cx="58.0" cy="56.9" r="3.0" fill="url(#skyPt)"/>
      <line x1="58.0" y1="56.9" x2="64.0" y2="65.2" stroke="#8fb5e8" stroke-width="1.4" opacity="0.85" marker-end="url(#arrow)"/>
      <circle cx="106.0" cy="72.0" r="2" fill="#6b665e"/>
      <line x1="109.6" y1="91.1" x2="106.0" y2="72.0" stroke="#6b665e" stroke-width="0.9" stroke-dasharray="3 3" opacity="0.7"/>
      <circle cx="109.6" cy="91.1" r="3.0" fill="url(#skyPt)"/>
      <line x1="109.6" y1="91.1" x2="107.6" y2="80.6" stroke="#8fb5e8" stroke-width="1.4" opacity="0.85" marker-end="url(#arrow)"/>
      <circle cx="143.0" cy="72.0" r="2" fill="#6b665e"/>
      <line x1="146.7" y1="62.6" x2="143.0" y2="72.0" stroke="#6b665e" stroke-width="0.9" stroke-dasharray="3 3" opacity="0.7"/>
      <circle cx="146.7" cy="62.6" r="3.0" fill="url(#skyPt)"/>
      <line x1="146.7" y1="62.6" x2="144.7" y2="67.8" stroke="#8fb5e8" stroke-width="1.4" opacity="0.85" marker-end="url(#arrow)"/>
      <circle cx="180.0" cy="72.0" r="2" fill="#6b665e"/>
      <line x1="187.3" y1="52.1" x2="180.0" y2="72.0" stroke="#6b665e" stroke-width="0.9" stroke-dasharray="3 3" opacity="0.7"/>
      <circle cx="187.3" cy="52.1" r="3.0" fill="url(#skyPt)"/>
      <line x1="187.3" y1="52.1" x2="183.3" y2="63.1" stroke="#8fb5e8" stroke-width="1.4" opacity="0.85" marker-end="url(#arrow)"/>
      <circle cx="217.0" cy="72.0" r="2" fill="#6b665e"/>
      <line x1="210.3" y1="82.5" x2="217.0" y2="72.0" stroke="#6b665e" stroke-width="0.9" stroke-dasharray="3 3" opacity="0.7"/>
      <circle cx="210.3" cy="82.5" r="3.0" fill="url(#skyPt)"/>
      <line x1="210.3" y1="82.5" x2="214.0" y2="76.7" stroke="#8fb5e8" stroke-width="1.4" opacity="0.85" marker-end="url(#arrow)"/>
      <circle cx="32.0" cy="114.0" r="2" fill="#6b665e"/>
      <line x1="46.8" y1="109.9" x2="32.0" y2="114.0" stroke="#6b665e" stroke-width="0.9" stroke-dasharray="3 3" opacity="0.7"/>
      <circle cx="46.8" cy="109.9" r="3.0" fill="url(#skyPt)"/>
      <line x1="46.8" y1="109.9" x2="38.7" y2="112.2" stroke="#8fb5e8" stroke-width="1.4" opacity="0.85" marker-end="url(#arrow)"/>
      <circle cx="69.0" cy="114.0" r="2" fill="#6b665e"/>
      <line x1="78.6" y1="120.4" x2="69.0" y2="114.0" stroke="#6b665e" stroke-width="0.9" stroke-dasharray="3 3" opacity="0.7"/>
      <circle cx="78.6" cy="120.4" r="3.0" fill="url(#skyPt)"/>
      <line x1="78.6" y1="120.4" x2="73.3" y2="116.9" stroke="#8fb5e8" stroke-width="1.4" opacity="0.85" marker-end="url(#arrow)"/>
      <circle cx="106.0" cy="114.0" r="2" fill="#6b665e"/>
      <line x1="117.3" y1="97.9" x2="106.0" y2="114.0" stroke="#6b665e" stroke-width="0.9" stroke-dasharray="3 3" opacity="0.7"/>
      <circle cx="117.3" cy="97.9" r="3.0" fill="url(#skyPt)"/>
      <line x1="117.3" y1="97.9" x2="111.1" y2="106.8" stroke="#8fb5e8" stroke-width="1.4" opacity="0.85" marker-end="url(#arrow)"/>
      <circle cx="143.0" cy="114.0" r="2" fill="#6b665e"/>
      <line x1="150.6" y1="93.7" x2="143.0" y2="114.0" stroke="#6b665e" stroke-width="0.9" stroke-dasharray="3 3" opacity="0.7"/>
      <circle cx="150.6" cy="93.7" r="3.0" fill="url(#skyPt)"/>
      <line x1="150.6" y1="93.7" x2="146.4" y2="104.9" stroke="#8fb5e8" stroke-width="1.4" opacity="0.85" marker-end="url(#arrow)"/>
      <circle cx="180.0" cy="114.0" r="2" fill="#6b665e"/>
      <line x1="155.1" y1="108.2" x2="180.0" y2="114.0" stroke="#6b665e" stroke-width="0.9" stroke-dasharray="3 3" opacity="0.7"/>
      <circle cx="155.1" cy="108.2" r="3.0" fill="url(#skyPt)"/>
      <line x1="155.1" y1="108.2" x2="168.8" y2="111.4" stroke="#8fb5e8" stroke-width="1.4" opacity="0.85" marker-end="url(#arrow)"/>
      <circle cx="217.0" cy="114.0" r="2" fill="#6b665e"/>
      <line x1="203.4" y1="127.0" x2="217.0" y2="114.0" stroke="#6b665e" stroke-width="0.9" stroke-dasharray="3 3" opacity="0.7"/>
      <circle cx="203.4" cy="127.0" r="3.0" fill="url(#skyPt)"/>
      <line x1="203.4" y1="127.0" x2="210.9" y2="119.9" stroke="#8fb5e8" stroke-width="1.4" opacity="0.85" marker-end="url(#arrow)"/>
      <circle cx="32.0" cy="156.0" r="2" fill="#6b665e"/>
      <line x1="41.5" y1="138.5" x2="32.0" y2="156.0" stroke="#6b665e" stroke-width="0.9" stroke-dasharray="3 3" opacity="0.7"/>
      <circle cx="41.5" cy="138.5" r="3.0" fill="url(#skyPt)"/>
      <line x1="41.5" y1="138.5" x2="36.3" y2="148.1" stroke="#8fb5e8" stroke-width="1.4" opacity="0.85" marker-end="url(#arrow)"/>
      <circle cx="69.0" cy="156.0" r="2" fill="#6b665e"/>
      <line x1="81.4" y1="141.3" x2="69.0" y2="156.0" stroke="#6b665e" stroke-width="0.9" stroke-dasharray="3 3" opacity="0.7"/>
      <circle cx="81.4" cy="141.3" r="3.0" fill="url(#skyPt)"/>
      <line x1="81.4" y1="141.3" x2="74.6" y2="149.4" stroke="#8fb5e8" stroke-width="1.4" opacity="0.85" marker-end="url(#arrow)"/>
      <circle cx="106.0" cy="156.0" r="2" fill="#6b665e"/>
      <line x1="103.0" y1="145.7" x2="106.0" y2="156.0" stroke="#6b665e" stroke-width="0.9" stroke-dasharray="3 3" opacity="0.7"/>
      <circle cx="103.0" cy="145.7" r="3.0" fill="url(#skyPt)"/>
      <line x1="103.0" y1="145.7" x2="104.6" y2="151.4" stroke="#8fb5e8" stroke-width="1.4" opacity="0.85" marker-end="url(#arrow)"/>
      <circle cx="143.0" cy="156.0" r="2" fill="#6b665e"/>
      <line x1="145.0" y1="170.5" x2="143.0" y2="156.0" stroke="#6b665e" stroke-width="0.9" stroke-dasharray="3 3" opacity="0.7"/>
      <circle cx="145.0" cy="170.5" r="3.0" fill="url(#skyPt)"/>
      <line x1="145.0" y1="170.5" x2="143.9" y2="162.5" stroke="#8fb5e8" stroke-width="1.4" opacity="0.85" marker-end="url(#arrow)"/>
      <circle cx="180.0" cy="156.0" r="2" fill="#6b665e"/>
      <line x1="192.0" y1="162.6" x2="180.0" y2="156.0" stroke="#6b665e" stroke-width="0.9" stroke-dasharray="3 3" opacity="0.7"/>
      <circle cx="192.0" cy="162.6" r="3.0" fill="url(#skyPt)"/>
      <line x1="192.0" y1="162.6" x2="185.4" y2="159.0" stroke="#8fb5e8" stroke-width="1.4" opacity="0.85" marker-end="url(#arrow)"/>
      <circle cx="217.0" cy="156.0" r="2" fill="#6b665e"/>
      <line x1="228.6" y1="164.6" x2="217.0" y2="156.0" stroke="#6b665e" stroke-width="0.9" stroke-dasharray="3 3" opacity="0.7"/>
      <circle cx="228.6" cy="164.6" r="3.0" fill="url(#skyPt)"/>
      <line x1="228.6" y1="164.6" x2="222.2" y2="159.9" stroke="#8fb5e8" stroke-width="1.4" opacity="0.85" marker-end="url(#arrow)"/>
  </svg>
  <rect x="1286" y="300" width="250" height="180" fill="none" stroke="#2a2a30" stroke-width="1.5"/>
  <text x="1411.0" y="505" fill="#ece8df" font-size="18" font-weight="300" text-anchor="middle" letter-spacing="1">RETURN</text>
  <text x="1411.0" y="528" fill="#6b665e" font-size="12.5" text-anchor="middle" font-family="ui-monospace,'SF Mono',Menlo,monospace">decays back · wake</text>

  <!-- MECHANISM card -->
  <rect x="64" y="596" width="700" height="186" fill="#0f0f12" stroke="#1d1d20" stroke-width="1"/>
  <text x="86" y="626" fill="#4d7fe0" font-size="13" letter-spacing="2.5" font-family="ui-monospace,'SF Mono',Menlo,monospace">MECHANISM</text>
  <g font-family="ui-monospace,'SF Mono',Menlo,monospace" font-size="13" fill="#9a948a">
    <text x="86" y="654">DRIFT — GPU turbulence, always on (TURB_AMP 2.0)</text>
    <text x="86" y="678">FALLOFF — within MOUSE_RADIUS = 278 px (fo = 1 − dist/radius)</text>
    <text x="86" y="702">SWIRL — tangential 25 + inward 6 · PUSH — out 29 · ATTRACT — in 30</text>
    <text x="86" y="726">RETURN — offset decays exp: 1.2 normal, 0.35 while large (wake)</text>
    <text x="86" y="750">COMPUTE — cursor offsets on CPU, turbulence on GPU</text>
    <text x="86" y="774">KINEMATIC offset + decay — no mass, velocity, or collisions</text>
  </g>

  <!-- NOTES card -->
  <rect x="800" y="596" width="736" height="186" fill="#0f0f12" stroke="#1d1d20" stroke-width="1"/>
  <text x="822" y="626" fill="#4d7fe0" font-size="13" letter-spacing="2.5" font-family="ui-monospace,'SF Mono',Menlo,monospace">HOW IT BEHAVES</text>
  <g font-size="15" font-weight="300" fill="#ece8df">
    <text x="822" y="654">1 — drift moves the whole field; the cursor affects only nearby points</text>
    <text x="822" y="680">2 — force is stronger near the cursor, zero past the radius</text>
    <text x="822" y="706">3 — swirl orbits the cursor with a slight inward pull</text>
    <text x="822" y="732">4 — displaced points settle back home, leaving a brief wake</text>
    <text x="822" y="758">5 — kinematic offset + decay, not a physics simulation</text>
  </g>

  <!-- footer (light technical) -->
  <line x1="64" y1="824" x2="1536" y2="824" stroke="#1d1d20" stroke-width="1"/>
  <text x="64" y="852" fill="#9a948a" font-size="16" font-weight="300">MOUSE_RADIUS = 278 px · swirl 25 (+6) · push 29 · attract 30 · return decay 1.2 / 0.35.</text>
  <text x="64" y="876" fill="#6b665e" font-size="13.5" font-weight="300">A renderer — not a filter, not AI, not a physics simulation.</text>
</svg>
