<?xml version="1.0" encoding="UTF-8"?>
<!-- PixelCluster Diagram 1 v1.1 (2026-05-29). Panel 3 = clustered scatter (12x7 clusters, seed 42).
     Revision of v1: only Panel 3 point-field rendering changed. Build artifact, not published. -->
<svg xmlns="http://www.w3.org/2000/svg" viewBox="0 0 1600 900" width="1600" height="900" font-family="'Helvetica Neue', Helvetica, Arial, sans-serif">
  <defs>
    <marker id="arrow" viewBox="0 0 10 10" refX="8" refY="5" markerWidth="7" markerHeight="7" orient="auto-start-reverse">
      <path d="M0,0 L10,5 L0,10 z" fill="#8fb5e8"/>
    </marker>
    <g id="teach">
      <rect x="0" y="0" width="440" height="248" fill="#2f8fd6"/>
      <rect x="0" y="150" width="440" height="98" fill="#3aa85a"/>
      <circle cx="92" cy="66" r="40" fill="#f3c33b"/>
      <rect x="178" y="104" width="64" height="86" fill="#8a4fd0"/>
      <rect x="300" y="78" width="86" height="112" fill="#d8493a"/>
    </g>
    <filter id="soft" x="-20%" y="-20%" width="140%" height="140%">
      <feGaussianBlur stdDeviation="0.5"/>
    </filter>
  </defs>

  <rect x="0" y="0" width="1600" height="900" fill="#0a0a0b"/>

  <text x="64" y="66" fill="#6b665e" font-size="14" letter-spacing="3" font-family="ui-monospace,'SF Mono',Menlo,monospace">PIXELCLUSTER — HOW IT WORKS</text>
  <text x="64" y="150" fill="#ece8df" font-size="46" font-weight="200" letter-spacing="-1.5">Frame to point clusters</text>
  <text x="64" y="192" fill="#9a948a" font-size="20" font-weight="300">A sampling grid reads each region of a frame, then spawns a small cluster of points that share its color.</text>

  <!-- PANEL 1 -->
  <svg x="64" y="250" width="440" height="248" viewBox="0 0 440 248">
    <use href="#teach"/>
    <rect x="330" y="106.3" width="36.7" height="35.4" fill="none" stroke="#78b4ff" stroke-width="2.5"/>
  </svg>
  <rect x="64" y="250" width="440" height="248" fill="none" stroke="#2a2a30" stroke-width="1.5"/>

  <line x1="516" y1="374" x2="566" y2="374" stroke="#8fb5e8" stroke-width="2" marker-end="url(#arrow)"/>
  <text x="541" y="362" fill="#6b665e" font-size="13" text-anchor="middle" font-family="ui-monospace,'SF Mono',Menlo,monospace">sample</text>

  <!-- PANEL 2 -->
  <svg x="580" y="250" width="440" height="248" viewBox="0 0 440 248">
    <use href="#teach"/>
    <rect x="0" y="0" width="440" height="248" fill="#0a0a0b" opacity="0.28"/>
    <g stroke="#cdd6e0" stroke-width="0.8" opacity="0.4">
      <line x1="36.7" y1="0" x2="36.7" y2="248"/><line x1="73.3" y1="0" x2="73.3" y2="248"/>
      <line x1="110" y1="0" x2="110" y2="248"/><line x1="146.7" y1="0" x2="146.7" y2="248"/>
      <line x1="183.3" y1="0" x2="183.3" y2="248"/><line x1="220" y1="0" x2="220" y2="248"/>
      <line x1="256.7" y1="0" x2="256.7" y2="248"/><line x1="293.3" y1="0" x2="293.3" y2="248"/>
      <line x1="330" y1="0" x2="330" y2="248"/><line x1="366.7" y1="0" x2="366.7" y2="248"/>
      <line x1="403.3" y1="0" x2="403.3" y2="248"/>
      <line x1="0" y1="35.4" x2="440" y2="35.4"/><line x1="0" y1="70.9" x2="440" y2="70.9"/>
      <line x1="0" y1="106.3" x2="440" y2="106.3"/><line x1="0" y1="141.7" x2="440" y2="141.7"/>
      <line x1="0" y1="177.1" x2="440" y2="177.1"/><line x1="0" y1="212.6" x2="440" y2="212.6"/>
    </g>
    <rect x="330" y="106.3" width="36.7" height="35.4" fill="#78b4ff" fill-opacity="0.12" stroke="#78b4ff" stroke-width="2.5"/>
  </svg>
  <rect x="580" y="250" width="440" height="248" fill="none" stroke="#2a2a30" stroke-width="1.5"/>

  <line x1="1032" y1="374" x2="1082" y2="374" stroke="#8fb5e8" stroke-width="2" marker-end="url(#arrow)"/>
  <text x="1057" y="362" fill="#6b665e" font-size="13" text-anchor="middle" font-family="ui-monospace,'SF Mono',Menlo,monospace">spawn</text>

  <!-- PANEL 3 : clustered scatter (REVISED in v1.1) -->
  <svg x="1096" y="250" width="440" height="248" viewBox="0 0 440 248">
    <rect x="0" y="0" width="440" height="248" fill="#0a0a0b"/>
    <g filter="url(#soft)">
      <circle cx="21.3" cy="18.2" r="1.36" fill="#2f8fd6"/>
      <circle cx="17.7" cy="10.3" r="2.54" fill="#2f8fd6"/>
      <circle cx="22.3" cy="20.1" r="1.30" fill="#2f8fd6"/>
      <circle cx="19.4" cy="23.2" r="1.30" fill="#2f8fd6"/>
      <circle cx="20.6" cy="24.5" r="1.72" fill="#2f8fd6"/>
      <circle cx="52.1" cy="18.7" r="2.48" fill="#2f8fd6"/>
      <circle cx="55.1" cy="16.0" r="1.54" fill="#2f8fd6"/>
      <circle cx="54.6" cy="20.0" r="2.18" fill="#2f8fd6"/>
      <circle cx="58.3" cy="20.2" r="1.47" fill="#2f8fd6"/>
      <circle cx="53.4" cy="20.1" r="1.30" fill="#2f8fd6"/>
      <circle cx="53.7" cy="18.1" r="2.64" fill="#2f8fd6"/>
      <circle cx="83.0" cy="14.8" r="1.86" fill="#2f8fd6"/>
      <circle cx="95.8" cy="12.9" r="2.04" fill="#2f8fd6"/>
      <circle cx="94.1" cy="18.4" r="1.40" fill="#2f8fd6"/>
      <circle cx="93.9" cy="18.9" r="1.31" fill="#2f8fd6"/>
      <circle cx="90.4" cy="24.6" r="1.47" fill="#2f8fd6"/>
      <circle cx="123.8" cy="23.5" r="2.03" fill="#2f8fd6"/>
      <circle cx="128.0" cy="17.0" r="1.89" fill="#2f8fd6"/>
      <circle cx="125.7" cy="17.1" r="1.59" fill="#2f8fd6"/>
      <circle cx="127.1" cy="27.8" r="2.00" fill="#2f8fd6"/>
      <circle cx="129.0" cy="21.2" r="2.20" fill="#2f8fd6"/>
      <circle cx="136.8" cy="20.8" r="2.29" fill="#2f8fd6"/>
      <circle cx="127.7" cy="18.1" r="2.61" fill="#2f8fd6"/>
      <circle cx="166.3" cy="23.1" r="2.52" fill="#2f8fd6"/>
      <circle cx="164.0" cy="16.5" r="1.32" fill="#2f8fd6"/>
      <circle cx="164.8" cy="11.8" r="2.14" fill="#2f8fd6"/>
      <circle cx="159.2" cy="20.5" r="1.47" fill="#2f8fd6"/>
      <circle cx="166.5" cy="17.7" r="1.64" fill="#2f8fd6"/>
      <circle cx="165.3" cy="8.2" r="1.33" fill="#2f8fd6"/>
      <circle cx="169.0" cy="24.0" r="1.81" fill="#2f8fd6"/>
      <circle cx="193.6" cy="25.1" r="1.69" fill="#2f8fd6"/>
      <circle cx="211.0" cy="16.0" r="1.30" fill="#2f8fd6"/>
      <circle cx="200.3" cy="10.3" r="1.71" fill="#2f8fd6"/>
      <circle cx="200.9" cy="24.7" r="1.31" fill="#2f8fd6"/>
      <circle cx="197.1" cy="19.7" r="2.74" fill="#2f8fd6"/>
      <circle cx="203.7" cy="15.7" r="1.65" fill="#2f8fd6"/>
      <circle cx="206.0" cy="26.8" r="2.48" fill="#2f8fd6"/>
      <circle cx="199.6" cy="24.4" r="1.84" fill="#2f8fd6"/>
      <circle cx="237.1" cy="19.0" r="2.74" fill="#2f8fd6"/>
      <circle cx="247.3" cy="13.0" r="1.82" fill="#2f8fd6"/>
      <circle cx="237.1" cy="17.8" r="1.47" fill="#2f8fd6"/>
      <circle cx="247.2" cy="16.9" r="1.37" fill="#2f8fd6"/>
      <circle cx="238.7" cy="23.9" r="1.31" fill="#2f8fd6"/>
      <circle cx="237.3" cy="8.8" r="2.82" fill="#2f8fd6"/>
      <circle cx="278.6" cy="21.5" r="1.73" fill="#2f8fd6"/>
      <circle cx="274.1" cy="27.3" r="1.54" fill="#2f8fd6"/>
      <circle cx="276.4" cy="23.5" r="2.10" fill="#2f8fd6"/>
      <circle cx="276.0" cy="21.0" r="2.88" fill="#2f8fd6"/>
      <circle cx="272.2" cy="13.8" r="1.68" fill="#2f8fd6"/>
      <circle cx="276.8" cy="19.4" r="1.45" fill="#2f8fd6"/>
      <circle cx="311.6" cy="17.7" r="2.05" fill="#2f8fd6"/>
      <circle cx="312.4" cy="18.0" r="1.30" fill="#2f8fd6"/>
      <circle cx="308.9" cy="22.7" r="1.40" fill="#2f8fd6"/>
      <circle cx="305.8" cy="18.3" r="2.08" fill="#2f8fd6"/>
      <circle cx="316.4" cy="13.4" r="1.37" fill="#2f8fd6"/>
      <circle cx="307.3" cy="18.5" r="1.31" fill="#2f8fd6"/>
      <circle cx="345.6" cy="21.3" r="2.46" fill="#2f8fd6"/>
      <circle cx="355.1" cy="20.1" r="1.91" fill="#2f8fd6"/>
      <circle cx="355.8" cy="20.7" r="2.28" fill="#2f8fd6"/>
      <circle cx="350.0" cy="19.1" r="1.71" fill="#2f8fd6"/>
      <circle cx="349.6" cy="19.3" r="1.59" fill="#2f8fd6"/>
      <circle cx="348.9" cy="17.1" r="2.30" fill="#2f8fd6"/>
      <circle cx="349.0" cy="16.9" r="1.92" fill="#2f8fd6"/>
      <circle cx="348.2" cy="17.7" r="1.31" fill="#2f8fd6"/>
      <circle cx="387.7" cy="22.3" r="1.35" fill="#2f8fd6"/>
      <circle cx="384.5" cy="18.1" r="1.49" fill="#2f8fd6"/>
      <circle cx="387.9" cy="17.4" r="2.24" fill="#2f8fd6"/>
      <circle cx="380.5" cy="19.0" r="2.75" fill="#2f8fd6"/>
      <circle cx="391.1" cy="17.5" r="2.07" fill="#2f8fd6"/>
      <circle cx="386.8" cy="20.4" r="2.79" fill="#2f8fd6"/>
      <circle cx="421.7" cy="17.1" r="1.79" fill="#2f8fd6"/>
      <circle cx="412.3" cy="17.5" r="1.33" fill="#2f8fd6"/>
      <circle cx="422.5" cy="17.5" r="1.34" fill="#2f8fd6"/>
      <circle cx="415.5" cy="13.5" r="1.37" fill="#2f8fd6"/>
      <circle cx="428.8" cy="24.4" r="1.37" fill="#2f8fd6"/>
      <circle cx="15.0" cy="50.0" r="1.79" fill="#2f8fd6"/>
      <circle cx="8.2" cy="51.7" r="1.35" fill="#2f8fd6"/>
      <circle cx="17.8" cy="50.6" r="1.51" fill="#2f8fd6"/>
      <circle cx="16.8" cy="50.2" r="1.43" fill="#2f8fd6"/>
      <circle cx="18.3" cy="52.3" r="1.59" fill="#2f8fd6"/>
      <circle cx="57.1" cy="54.2" r="1.39" fill="#f3c33b"/>
      <circle cx="63.8" cy="49.2" r="2.51" fill="#f3c33b"/>
      <circle cx="53.8" cy="54.4" r="2.37" fill="#f3c33b"/>
      <circle cx="53.1" cy="46.7" r="2.86" fill="#f3c33b"/>
      <circle cx="55.0" cy="53.1" r="2.33" fill="#f3c33b"/>
      <circle cx="92.7" cy="52.7" r="2.50" fill="#f3c33b"/>
      <circle cx="90.8" cy="62.9" r="2.13" fill="#f3c33b"/>
      <circle cx="93.4" cy="55.7" r="1.35" fill="#f3c33b"/>
      <circle cx="87.5" cy="59.5" r="2.43" fill="#f3c33b"/>
      <circle cx="88.9" cy="53.0" r="2.59" fill="#f3c33b"/>
      <circle cx="98.3" cy="55.3" r="2.36" fill="#f3c33b"/>
      <circle cx="95.2" cy="54.1" r="1.32" fill="#f3c33b"/>
      <circle cx="130.9" cy="57.3" r="2.04" fill="#f3c33b"/>
      <circle cx="127.2" cy="52.7" r="2.71" fill="#f3c33b"/>
      <circle cx="127.7" cy="51.6" r="1.30" fill="#f3c33b"/>
      <circle cx="124.2" cy="57.6" r="1.55" fill="#f3c33b"/>
      <circle cx="132.2" cy="54.2" r="2.67" fill="#f3c33b"/>
      <circle cx="128.8" cy="53.1" r="1.47" fill="#f3c33b"/>
      <circle cx="125.3" cy="46.5" r="1.46" fill="#f3c33b"/>
      <circle cx="173.1" cy="51.8" r="2.65" fill="#2f8fd6"/>
      <circle cx="165.1" cy="54.9" r="2.28" fill="#2f8fd6"/>
      <circle cx="167.0" cy="57.2" r="1.34" fill="#2f8fd6"/>
      <circle cx="172.7" cy="49.2" r="1.53" fill="#2f8fd6"/>
      <circle cx="161.1" cy="46.1" r="1.37" fill="#2f8fd6"/>
      <circle cx="169.2" cy="59.6" r="1.49" fill="#2f8fd6"/>
      <circle cx="170.0" cy="54.4" r="1.35" fill="#2f8fd6"/>
      <circle cx="168.4" cy="51.3" r="2.34" fill="#2f8fd6"/>
      <circle cx="202.9" cy="60.3" r="1.51" fill="#2f8fd6"/>
      <circle cx="201.5" cy="53.9" r="2.21" fill="#2f8fd6"/>
      <circle cx="198.3" cy="57.7" r="1.98" fill="#2f8fd6"/>
      <circle cx="203.7" cy="50.1" r="1.30" fill="#2f8fd6"/>
      <circle cx="203.7" cy="51.1" r="1.78" fill="#2f8fd6"/>
      <circle cx="202.1" cy="53.1" r="1.81" fill="#2f8fd6"/>
      <circle cx="237.9" cy="49.7" r="1.83" fill="#2f8fd6"/>
      <circle cx="234.1" cy="52.8" r="1.78" fill="#2f8fd6"/>
      <circle cx="238.1" cy="60.9" r="1.30" fill="#2f8fd6"/>
      <circle cx="243.6" cy="50.5" r="2.08" fill="#2f8fd6"/>
      <circle cx="238.0" cy="45.8" r="1.47" fill="#2f8fd6"/>
      <circle cx="244.9" cy="56.3" r="1.44" fill="#2f8fd6"/>
      <circle cx="234.7" cy="61.7" r="2.08" fill="#2f8fd6"/>
      <circle cx="267.7" cy="52.8" r="1.44" fill="#2f8fd6"/>
      <circle cx="273.0" cy="47.4" r="1.34" fill="#2f8fd6"/>
      <circle cx="272.9" cy="49.6" r="2.15" fill="#2f8fd6"/>
      <circle cx="277.9" cy="58.7" r="1.52" fill="#2f8fd6"/>
      <circle cx="276.7" cy="50.3" r="1.35" fill="#2f8fd6"/>
      <circle cx="276.5" cy="46.6" r="1.43" fill="#2f8fd6"/>
      <circle cx="268.1" cy="55.8" r="1.67" fill="#2f8fd6"/>
      <circle cx="310.0" cy="50.5" r="1.95" fill="#2f8fd6"/>
      <circle cx="310.9" cy="52.4" r="2.74" fill="#2f8fd6"/>
      <circle cx="312.0" cy="56.5" r="2.30" fill="#2f8fd6"/>
      <circle cx="312.0" cy="53.5" r="2.84" fill="#2f8fd6"/>
      <circle cx="305.2" cy="47.7" r="1.58" fill="#2f8fd6"/>
      <circle cx="316.4" cy="49.0" r="2.07" fill="#2f8fd6"/>
      <circle cx="345.7" cy="53.2" r="1.93" fill="#2f8fd6"/>
      <circle cx="356.6" cy="53.4" r="2.20" fill="#2f8fd6"/>
      <circle cx="352.0" cy="56.0" r="1.33" fill="#2f8fd6"/>
      <circle cx="353.8" cy="51.7" r="1.30" fill="#2f8fd6"/>
      <circle cx="348.4" cy="62.5" r="1.58" fill="#2f8fd6"/>
      <circle cx="350.7" cy="46.2" r="2.86" fill="#2f8fd6"/>
      <circle cx="339.7" cy="47.2" r="2.54" fill="#2f8fd6"/>
      <circle cx="342.3" cy="48.0" r="1.66" fill="#2f8fd6"/>
      <circle cx="391.5" cy="48.2" r="1.61" fill="#2f8fd6"/>
      <circle cx="384.8" cy="55.9" r="1.89" fill="#2f8fd6"/>
      <circle cx="385.6" cy="47.4" r="1.87" fill="#2f8fd6"/>
      <circle cx="384.9" cy="54.0" r="1.40" fill="#2f8fd6"/>
      <circle cx="384.5" cy="56.6" r="1.71" fill="#2f8fd6"/>
      <circle cx="386.6" cy="55.1" r="2.02" fill="#2f8fd6"/>
      <circle cx="384.8" cy="52.5" r="1.52" fill="#2f8fd6"/>
      <circle cx="380.6" cy="51.9" r="1.35" fill="#2f8fd6"/>
      <circle cx="415.2" cy="58.6" r="2.72" fill="#2f8fd6"/>
      <circle cx="431.3" cy="54.3" r="1.77" fill="#2f8fd6"/>
      <circle cx="411.4" cy="54.6" r="1.41" fill="#2f8fd6"/>
      <circle cx="414.1" cy="59.4" r="2.38" fill="#2f8fd6"/>
      <circle cx="413.8" cy="51.2" r="2.28" fill="#2f8fd6"/>
      <circle cx="426.0" cy="49.9" r="1.39" fill="#2f8fd6"/>
      <circle cx="417.4" cy="53.5" r="1.96" fill="#2f8fd6"/>
      <circle cx="424.0" cy="45.5" r="2.39" fill="#2f8fd6"/>
      <circle cx="24.2" cy="87.9" r="2.59" fill="#2f8fd6"/>
      <circle cx="12.2" cy="84.6" r="1.31" fill="#2f8fd6"/>
      <circle cx="9.7" cy="92.7" r="1.34" fill="#2f8fd6"/>
      <circle cx="18.1" cy="92.2" r="1.58" fill="#2f8fd6"/>
      <circle cx="13.3" cy="96.8" r="1.40" fill="#2f8fd6"/>
      <circle cx="22.8" cy="87.2" r="2.38" fill="#2f8fd6"/>
      <circle cx="60.9" cy="89.3" r="2.90" fill="#2f8fd6"/>
      <circle cx="50.8" cy="94.4" r="2.23" fill="#2f8fd6"/>
      <circle cx="50.2" cy="81.8" r="2.73" fill="#2f8fd6"/>
      <circle cx="55.1" cy="88.8" r="1.33" fill="#2f8fd6"/>
      <circle cx="60.2" cy="93.8" r="1.75" fill="#2f8fd6"/>
      <circle cx="56.5" cy="96.1" r="2.19" fill="#2f8fd6"/>
      <circle cx="58.3" cy="94.4" r="2.14" fill="#2f8fd6"/>
      <circle cx="61.8" cy="94.5" r="2.78" fill="#2f8fd6"/>
      <circle cx="82.7" cy="83.7" r="1.78" fill="#f3c33b"/>
      <circle cx="95.1" cy="86.3" r="2.70" fill="#f3c33b"/>
      <circle cx="93.7" cy="94.7" r="2.36" fill="#f3c33b"/>
      <circle cx="92.0" cy="96.2" r="1.41" fill="#f3c33b"/>
      <circle cx="88.1" cy="80.5" r="2.27" fill="#f3c33b"/>
      <circle cx="125.6" cy="92.4" r="1.48" fill="#2f8fd6"/>
      <circle cx="124.6" cy="88.4" r="2.42" fill="#2f8fd6"/>
      <circle cx="128.8" cy="87.5" r="2.77" fill="#2f8fd6"/>
      <circle cx="122.3" cy="81.7" r="2.05" fill="#2f8fd6"/>
      <circle cx="120.9" cy="91.8" r="2.78" fill="#2f8fd6"/>
      <circle cx="157.5" cy="81.8" r="2.21" fill="#2f8fd6"/>
      <circle cx="156.1" cy="90.6" r="1.81" fill="#2f8fd6"/>
      <circle cx="163.8" cy="91.0" r="2.68" fill="#2f8fd6"/>
      <circle cx="164.1" cy="93.4" r="2.15" fill="#2f8fd6"/>
      <circle cx="158.3" cy="85.4" r="1.45" fill="#2f8fd6"/>
      <circle cx="161.4" cy="88.7" r="1.63" fill="#2f8fd6"/>
      <circle cx="163.3" cy="90.8" r="1.40" fill="#2f8fd6"/>
      <circle cx="196.3" cy="86.6" r="1.34" fill="#2f8fd6"/>
      <circle cx="201.9" cy="93.0" r="1.74" fill="#2f8fd6"/>
      <circle cx="202.0" cy="93.8" r="2.06" fill="#2f8fd6"/>
      <circle cx="201.5" cy="88.6" r="1.41" fill="#2f8fd6"/>
      <circle cx="199.5" cy="90.1" r="1.95" fill="#2f8fd6"/>
      <circle cx="197.5" cy="93.0" r="1.45" fill="#2f8fd6"/>
      <circle cx="207.7" cy="88.4" r="1.46" fill="#2f8fd6"/>
      <circle cx="238.0" cy="91.3" r="1.32" fill="#2f8fd6"/>
      <circle cx="238.8" cy="89.8" r="1.71" fill="#2f8fd6"/>
      <circle cx="238.5" cy="86.5" r="1.36" fill="#2f8fd6"/>
      <circle cx="230.4" cy="89.4" r="2.82" fill="#2f8fd6"/>
      <circle cx="235.3" cy="88.1" r="1.31" fill="#2f8fd6"/>
      <circle cx="239.2" cy="90.9" r="1.34" fill="#2f8fd6"/>
      <circle cx="244.2" cy="89.1" r="1.39" fill="#2f8fd6"/>
      <circle cx="244.3" cy="87.6" r="2.02" fill="#2f8fd6"/>
      <circle cx="269.6" cy="82.3" r="1.31" fill="#2f8fd6"/>
      <circle cx="278.1" cy="88.8" r="1.62" fill="#2f8fd6"/>
      <circle cx="269.3" cy="97.5" r="1.38" fill="#2f8fd6"/>
      <circle cx="275.8" cy="87.6" r="1.30" fill="#2f8fd6"/>
      <circle cx="268.7" cy="88.9" r="2.00" fill="#2f8fd6"/>
      <circle cx="280.2" cy="95.8" r="2.73" fill="#2f8fd6"/>
      <circle cx="313.0" cy="88.5" r="2.19" fill="#d8493a"/>
      <circle cx="304.8" cy="83.2" r="1.36" fill="#d8493a"/>
      <circle cx="306.8" cy="87.9" r="1.57" fill="#d8493a"/>
      <circle cx="318.6" cy="80.2" r="1.42" fill="#d8493a"/>
      <circle cx="306.8" cy="83.9" r="2.13" fill="#d8493a"/>
      <circle cx="346.3" cy="86.5" r="1.31" fill="#d8493a"/>
      <circle cx="348.7" cy="94.6" r="1.33" fill="#d8493a"/>
      <circle cx="342.0" cy="92.7" r="1.60" fill="#d8493a"/>
      <circle cx="351.4" cy="89.2" r="1.40" fill="#d8493a"/>
      <circle cx="348.8" cy="88.0" r="1.37" fill="#d8493a"/>
      <circle cx="347.5" cy="97.2" r="1.80" fill="#d8493a"/>
      <circle cx="379.7" cy="91.3" r="1.92" fill="#d8493a"/>
      <circle cx="392.6" cy="83.6" r="1.30" fill="#d8493a"/>
      <circle cx="386.7" cy="91.5" r="2.15" fill="#d8493a"/>
      <circle cx="382.1" cy="87.2" r="1.32" fill="#d8493a"/>
      <circle cx="382.1" cy="81.4" r="2.71" fill="#d8493a"/>
      <circle cx="379.6" cy="88.6" r="1.31" fill="#d8493a"/>
      <circle cx="427.9" cy="83.4" r="1.83" fill="#2f8fd6"/>
      <circle cx="424.2" cy="89.0" r="1.97" fill="#2f8fd6"/>
      <circle cx="425.8" cy="83.6" r="1.30" fill="#2f8fd6"/>
      <circle cx="422.5" cy="79.6" r="1.78" fill="#2f8fd6"/>
      <circle cx="421.8" cy="86.7" r="1.68" fill="#2f8fd6"/>
      <circle cx="20.1" cy="123.0" r="1.79" fill="#2f8fd6"/>
      <circle cx="14.8" cy="119.9" r="1.31" fill="#2f8fd6"/>
      <circle cx="16.2" cy="127.0" r="1.96" fill="#2f8fd6"/>
      <circle cx="20.6" cy="121.2" r="2.02" fill="#2f8fd6"/>
      <circle cx="15.9" cy="134.1" r="2.32" fill="#2f8fd6"/>
      <circle cx="13.6" cy="122.5" r="1.43" fill="#2f8fd6"/>
      <circle cx="13.6" cy="133.6" r="1.52" fill="#2f8fd6"/>
      <circle cx="7.5" cy="123.0" r="1.94" fill="#2f8fd6"/>
      <circle cx="53.2" cy="125.1" r="1.47" fill="#2f8fd6"/>
      <circle cx="55.3" cy="117.1" r="2.17" fill="#2f8fd6"/>
      <circle cx="56.7" cy="129.8" r="2.66" fill="#2f8fd6"/>
      <circle cx="47.9" cy="126.9" r="1.32" fill="#2f8fd6"/>
      <circle cx="61.6" cy="122.9" r="1.37" fill="#2f8fd6"/>
      <circle cx="58.3" cy="129.1" r="1.73" fill="#2f8fd6"/>
      <circle cx="64.1" cy="130.0" r="2.61" fill="#2f8fd6"/>
      <circle cx="53.7" cy="124.3" r="2.37" fill="#2f8fd6"/>
      <circle cx="94.6" cy="122.7" r="2.04" fill="#2f8fd6"/>
      <circle cx="87.1" cy="126.7" r="1.61" fill="#2f8fd6"/>
      <circle cx="90.1" cy="124.4" r="1.34" fill="#2f8fd6"/>
      <circle cx="85.0" cy="119.2" r="1.32" fill="#2f8fd6"/>
      <circle cx="99.4" cy="127.6" r="2.43" fill="#2f8fd6"/>
      <circle cx="87.0" cy="131.3" r="1.39" fill="#2f8fd6"/>
      <circle cx="99.7" cy="124.1" r="2.38" fill="#2f8fd6"/>
      <circle cx="85.3" cy="120.5" r="2.46" fill="#2f8fd6"/>
      <circle cx="124.6" cy="123.1" r="1.73" fill="#2f8fd6"/>
      <circle cx="123.5" cy="122.7" r="1.43" fill="#2f8fd6"/>
      <circle cx="131.2" cy="131.1" r="1.77" fill="#2f8fd6"/>
      <circle cx="129.2" cy="132.5" r="1.30" fill="#2f8fd6"/>
      <circle cx="128.1" cy="116.2" r="2.31" fill="#2f8fd6"/>
      <circle cx="122.8" cy="128.8" r="2.34" fill="#2f8fd6"/>
      <circle cx="133.7" cy="123.3" r="1.30" fill="#2f8fd6"/>
      <circle cx="121.8" cy="123.9" r="2.48" fill="#2f8fd6"/>
      <circle cx="173.1" cy="129.9" r="1.30" fill="#2f8fd6"/>
      <circle cx="170.9" cy="131.5" r="2.80" fill="#2f8fd6"/>
      <circle cx="172.7" cy="127.9" r="1.39" fill="#2f8fd6"/>
      <circle cx="161.9" cy="120.9" r="1.31" fill="#2f8fd6"/>
      <circle cx="161.5" cy="130.5" r="1.70" fill="#2f8fd6"/>
      <circle cx="171.6" cy="122.0" r="2.53" fill="#2f8fd6"/>
      <circle cx="159.1" cy="124.5" r="1.85" fill="#2f8fd6"/>
      <circle cx="165.7" cy="131.5" r="1.40" fill="#2f8fd6"/>
      <circle cx="201.6" cy="119.2" r="1.31" fill="#8a4fd0"/>
      <circle cx="195.3" cy="116.9" r="1.57" fill="#8a4fd0"/>
      <circle cx="198.2" cy="114.7" r="1.30" fill="#8a4fd0"/>
      <circle cx="202.6" cy="120.9" r="1.48" fill="#8a4fd0"/>
      <circle cx="205.2" cy="128.6" r="1.76" fill="#8a4fd0"/>
      <circle cx="202.2" cy="122.2" r="1.31" fill="#8a4fd0"/>
      <circle cx="236.4" cy="122.2" r="2.61" fill="#8a4fd0"/>
      <circle cx="241.5" cy="128.0" r="1.38" fill="#8a4fd0"/>
      <circle cx="238.3" cy="124.1" r="2.29" fill="#8a4fd0"/>
      <circle cx="244.4" cy="119.7" r="1.33" fill="#8a4fd0"/>
      <circle cx="234.8" cy="125.4" r="1.80" fill="#8a4fd0"/>
      <circle cx="235.3" cy="120.4" r="1.38" fill="#8a4fd0"/>
      <circle cx="239.6" cy="122.2" r="1.50" fill="#8a4fd0"/>
      <circle cx="235.7" cy="124.3" r="1.77" fill="#8a4fd0"/>
      <circle cx="278.2" cy="123.9" r="2.82" fill="#2f8fd6"/>
      <circle cx="273.4" cy="121.5" r="1.76" fill="#2f8fd6"/>
      <circle cx="271.8" cy="116.5" r="1.30" fill="#2f8fd6"/>
      <circle cx="270.7" cy="120.6" r="2.58" fill="#2f8fd6"/>
      <circle cx="273.0" cy="132.6" r="1.83" fill="#2f8fd6"/>
      <circle cx="270.8" cy="129.6" r="1.86" fill="#2f8fd6"/>
      <circle cx="271.5" cy="116.9" r="1.94" fill="#2f8fd6"/>
      <circle cx="304.8" cy="116.8" r="1.91" fill="#d8493a"/>
      <circle cx="309.9" cy="128.5" r="1.78" fill="#d8493a"/>
      <circle cx="311.6" cy="123.0" r="1.41" fill="#d8493a"/>
      <circle cx="311.6" cy="122.1" r="1.32" fill="#d8493a"/>
      <circle cx="301.3" cy="121.4" r="1.70" fill="#d8493a"/>
      <circle cx="319.5" cy="119.3" r="1.38" fill="#d8493a"/>
      <circle cx="350.7" cy="119.3" r="2.30" fill="#d8493a"/>
      <circle cx="348.3" cy="120.3" r="1.31" fill="#d8493a"/>
      <circle cx="349.8" cy="123.6" r="2.78" fill="#d8493a"/>
      <circle cx="353.4" cy="117.9" r="2.83" fill="#d8493a"/>
      <circle cx="357.0" cy="122.2" r="1.48" fill="#d8493a"/>
      <circle cx="348.4" cy="123.9" r="1.71" fill="#d8493a"/>
      <circle cx="341.2" cy="126.1" r="1.97" fill="#d8493a"/>
      <circle cx="389.5" cy="114.7" r="1.31" fill="#d8493a"/>
      <circle cx="385.0" cy="124.3" r="2.52" fill="#d8493a"/>
      <circle cx="375.7" cy="120.2" r="1.36" fill="#d8493a"/>
      <circle cx="393.4" cy="127.5" r="2.60" fill="#d8493a"/>
      <circle cx="383.6" cy="128.3" r="1.32" fill="#d8493a"/>
      <circle cx="388.2" cy="122.9" r="1.64" fill="#d8493a"/>
      <circle cx="393.0" cy="129.6" r="1.32" fill="#d8493a"/>
      <circle cx="377.9" cy="126.1" r="2.13" fill="#d8493a"/>
      <circle cx="414.8" cy="119.8" r="2.52" fill="#2f8fd6"/>
      <circle cx="416.5" cy="116.4" r="1.85" fill="#2f8fd6"/>
      <circle cx="424.5" cy="122.9" r="2.01" fill="#2f8fd6"/>
      <circle cx="422.7" cy="128.8" r="1.37" fill="#2f8fd6"/>
      <circle cx="414.6" cy="132.2" r="1.48" fill="#2f8fd6"/>
      <circle cx="427.4" cy="119.9" r="1.30" fill="#2f8fd6"/>
      <circle cx="419.9" cy="134.5" r="2.73" fill="#2f8fd6"/>
      <circle cx="422.1" cy="123.1" r="1.35" fill="#2f8fd6"/>
      <circle cx="21.8" cy="160.6" r="2.86" fill="#3aa85a"/>
      <circle cx="18.9" cy="157.2" r="2.36" fill="#3aa85a"/>
      <circle cx="12.3" cy="157.3" r="2.31" fill="#3aa85a"/>
      <circle cx="19.2" cy="167.9" r="2.25" fill="#3aa85a"/>
      <circle cx="15.8" cy="157.7" r="2.84" fill="#3aa85a"/>
      <circle cx="46.5" cy="157.2" r="1.31" fill="#3aa85a"/>
      <circle cx="56.0" cy="158.3" r="1.47" fill="#3aa85a"/>
      <circle cx="56.5" cy="153.1" r="1.30" fill="#3aa85a"/>
      <circle cx="54.9" cy="160.8" r="1.54" fill="#3aa85a"/>
      <circle cx="55.5" cy="159.9" r="1.57" fill="#3aa85a"/>
      <circle cx="50.8" cy="164.4" r="1.58" fill="#3aa85a"/>
      <circle cx="92.1" cy="159.3" r="2.23" fill="#3aa85a"/>
      <circle cx="95.5" cy="155.2" r="1.59" fill="#3aa85a"/>
      <circle cx="92.3" cy="159.3" r="1.62" fill="#3aa85a"/>
      <circle cx="85.5" cy="163.8" r="1.63" fill="#3aa85a"/>
      <circle cx="92.3" cy="159.0" r="1.31" fill="#3aa85a"/>
      <circle cx="91.1" cy="159.0" r="1.39" fill="#3aa85a"/>
      <circle cx="123.5" cy="163.9" r="1.41" fill="#3aa85a"/>
      <circle cx="123.6" cy="159.3" r="2.26" fill="#3aa85a"/>
      <circle cx="133.8" cy="164.2" r="2.50" fill="#3aa85a"/>
      <circle cx="119.3" cy="156.4" r="1.55" fill="#3aa85a"/>
      <circle cx="131.8" cy="156.5" r="2.35" fill="#3aa85a"/>
      <circle cx="121.9" cy="164.2" r="1.42" fill="#3aa85a"/>
      <circle cx="127.3" cy="162.0" r="2.74" fill="#3aa85a"/>
      <circle cx="173.3" cy="163.2" r="1.31" fill="#3aa85a"/>
      <circle cx="171.7" cy="164.1" r="2.31" fill="#3aa85a"/>
      <circle cx="158.9" cy="157.2" r="1.75" fill="#3aa85a"/>
      <circle cx="164.4" cy="160.6" r="1.46" fill="#3aa85a"/>
      <circle cx="160.8" cy="152.3" r="2.47" fill="#3aa85a"/>
      <circle cx="163.1" cy="149.0" r="1.82" fill="#3aa85a"/>
      <circle cx="161.2" cy="164.5" r="1.35" fill="#3aa85a"/>
      <circle cx="163.6" cy="157.4" r="1.31" fill="#3aa85a"/>
      <circle cx="204.0" cy="161.5" r="1.36" fill="#8a4fd0"/>
      <circle cx="196.1" cy="162.1" r="2.19" fill="#8a4fd0"/>
      <circle cx="196.3" cy="154.3" r="1.74" fill="#8a4fd0"/>
      <circle cx="196.1" cy="154.9" r="2.02" fill="#8a4fd0"/>
      <circle cx="204.6" cy="160.0" r="2.18" fill="#8a4fd0"/>
      <circle cx="205.1" cy="157.6" r="1.34" fill="#8a4fd0"/>
      <circle cx="206.2" cy="165.1" r="1.30" fill="#8a4fd0"/>
      <circle cx="243.2" cy="162.6" r="1.49" fill="#8a4fd0"/>
      <circle cx="236.7" cy="159.9" r="1.42" fill="#8a4fd0"/>
      <circle cx="233.7" cy="168.7" r="1.81" fill="#8a4fd0"/>
      <circle cx="239.6" cy="158.3" r="2.16" fill="#8a4fd0"/>
      <circle cx="239.2" cy="159.7" r="1.57" fill="#8a4fd0"/>
      <circle cx="270.2" cy="159.9" r="1.39" fill="#3aa85a"/>
      <circle cx="275.0" cy="158.2" r="1.55" fill="#3aa85a"/>
      <circle cx="273.5" cy="166.7" r="1.63" fill="#3aa85a"/>
      <circle cx="274.8" cy="159.0" r="1.51" fill="#3aa85a"/>
      <circle cx="274.9" cy="159.4" r="1.41" fill="#3aa85a"/>
      <circle cx="275.4" cy="160.9" r="1.38" fill="#3aa85a"/>
      <circle cx="275.0" cy="159.5" r="2.14" fill="#3aa85a"/>
      <circle cx="276.9" cy="163.2" r="2.04" fill="#3aa85a"/>
      <circle cx="320.2" cy="163.6" r="1.30" fill="#d8493a"/>
      <circle cx="321.7" cy="160.6" r="2.45" fill="#d8493a"/>
      <circle cx="306.1" cy="156.5" r="2.05" fill="#d8493a"/>
      <circle cx="310.6" cy="160.1" r="1.30" fill="#d8493a"/>
      <circle cx="307.7" cy="167.3" r="1.86" fill="#d8493a"/>
      <circle cx="316.7" cy="150.6" r="1.31" fill="#d8493a"/>
      <circle cx="313.2" cy="157.2" r="1.80" fill="#d8493a"/>
      <circle cx="345.6" cy="161.5" r="1.45" fill="#d8493a"/>
      <circle cx="347.4" cy="161.0" r="1.66" fill="#d8493a"/>
      <circle cx="352.6" cy="163.1" r="2.59" fill="#d8493a"/>
      <circle cx="343.7" cy="165.9" r="2.33" fill="#d8493a"/>
      <circle cx="349.4" cy="157.0" r="1.32" fill="#d8493a"/>
      <circle cx="385.8" cy="160.9" r="2.17" fill="#d8493a"/>
      <circle cx="394.3" cy="164.2" r="1.87" fill="#d8493a"/>
      <circle cx="379.0" cy="160.8" r="1.78" fill="#d8493a"/>
      <circle cx="380.9" cy="150.6" r="1.91" fill="#d8493a"/>
      <circle cx="388.5" cy="159.1" r="2.80" fill="#d8493a"/>
      <circle cx="383.0" cy="163.9" r="1.60" fill="#d8493a"/>
      <circle cx="423.5" cy="153.2" r="1.46" fill="#3aa85a"/>
      <circle cx="426.2" cy="161.7" r="1.30" fill="#3aa85a"/>
      <circle cx="419.5" cy="161.7" r="1.91" fill="#3aa85a"/>
      <circle cx="422.6" cy="159.3" r="1.81" fill="#3aa85a"/>
      <circle cx="416.9" cy="163.7" r="2.74" fill="#3aa85a"/>
      <circle cx="421.6" cy="159.0" r="2.60" fill="#3aa85a"/>
      <circle cx="419.8" cy="158.5" r="1.83" fill="#3aa85a"/>
      <circle cx="23.1" cy="193.6" r="2.31" fill="#3aa85a"/>
      <circle cx="24.0" cy="185.6" r="1.31" fill="#3aa85a"/>
      <circle cx="18.1" cy="194.5" r="2.05" fill="#3aa85a"/>
      <circle cx="24.1" cy="194.5" r="1.84" fill="#3aa85a"/>
      <circle cx="11.7" cy="202.5" r="1.50" fill="#3aa85a"/>
      <circle cx="19.5" cy="187.5" r="1.30" fill="#3aa85a"/>
      <circle cx="56.0" cy="195.3" r="1.98" fill="#3aa85a"/>
      <circle cx="53.3" cy="202.6" r="1.93" fill="#3aa85a"/>
      <circle cx="63.0" cy="189.5" r="1.44" fill="#3aa85a"/>
      <circle cx="53.6" cy="194.1" r="1.46" fill="#3aa85a"/>
      <circle cx="62.5" cy="193.3" r="1.50" fill="#3aa85a"/>
      <circle cx="46.5" cy="189.1" r="1.42" fill="#3aa85a"/>
      <circle cx="48.8" cy="200.9" r="2.32" fill="#3aa85a"/>
      <circle cx="88.8" cy="191.2" r="1.47" fill="#3aa85a"/>
      <circle cx="90.4" cy="196.4" r="1.35" fill="#3aa85a"/>
      <circle cx="96.7" cy="193.1" r="1.36" fill="#3aa85a"/>
      <circle cx="92.2" cy="195.5" r="2.40" fill="#3aa85a"/>
      <circle cx="98.5" cy="199.9" r="2.38" fill="#3aa85a"/>
      <circle cx="123.3" cy="186.7" r="1.86" fill="#3aa85a"/>
      <circle cx="126.9" cy="193.9" r="1.34" fill="#3aa85a"/>
      <circle cx="125.9" cy="188.4" r="2.58" fill="#3aa85a"/>
      <circle cx="128.2" cy="194.4" r="1.47" fill="#3aa85a"/>
      <circle cx="126.3" cy="184.4" r="1.84" fill="#3aa85a"/>
      <circle cx="165.3" cy="197.5" r="2.78" fill="#3aa85a"/>
      <circle cx="167.1" cy="185.1" r="1.34" fill="#3aa85a"/>
      <circle cx="162.3" cy="189.2" r="1.56" fill="#3aa85a"/>
      <circle cx="166.0" cy="186.4" r="1.65" fill="#3aa85a"/>
      <circle cx="163.4" cy="195.7" r="1.35" fill="#3aa85a"/>
      <circle cx="157.4" cy="189.0" r="1.30" fill="#3aa85a"/>
      <circle cx="160.9" cy="195.4" r="2.68" fill="#3aa85a"/>
      <circle cx="163.6" cy="189.3" r="1.32" fill="#3aa85a"/>
      <circle cx="201.9" cy="191.9" r="2.59" fill="#3aa85a"/>
      <circle cx="204.6" cy="198.7" r="2.72" fill="#3aa85a"/>
      <circle cx="202.5" cy="199.7" r="1.46" fill="#3aa85a"/>
      <circle cx="202.2" cy="195.0" r="1.65" fill="#3aa85a"/>
      <circle cx="202.6" cy="205.8" r="1.48" fill="#3aa85a"/>
      <circle cx="237.9" cy="195.8" r="2.06" fill="#3aa85a"/>
      <circle cx="237.5" cy="196.2" r="1.30" fill="#3aa85a"/>
      <circle cx="242.8" cy="192.3" r="2.37" fill="#3aa85a"/>
      <circle cx="238.6" cy="189.7" r="1.85" fill="#3aa85a"/>
      <circle cx="238.5" cy="194.7" r="1.35" fill="#3aa85a"/>
      <circle cx="267.4" cy="192.4" r="1.69" fill="#3aa85a"/>
      <circle cx="277.4" cy="196.9" r="1.41" fill="#3aa85a"/>
      <circle cx="279.4" cy="196.2" r="2.26" fill="#3aa85a"/>
      <circle cx="273.8" cy="195.2" r="2.58" fill="#3aa85a"/>
      <circle cx="274.9" cy="194.8" r="1.67" fill="#3aa85a"/>
      <circle cx="275.1" cy="196.4" r="1.55" fill="#3aa85a"/>
      <circle cx="311.9" cy="199.4" r="1.95" fill="#3aa85a"/>
      <circle cx="320.9" cy="200.4" r="1.30" fill="#3aa85a"/>
      <circle cx="306.2" cy="193.9" r="2.86" fill="#3aa85a"/>
      <circle cx="307.6" cy="193.4" r="1.60" fill="#3aa85a"/>
      <circle cx="304.6" cy="186.7" r="1.38" fill="#3aa85a"/>
      <circle cx="320.3" cy="195.7" r="1.45" fill="#3aa85a"/>
      <circle cx="310.9" cy="188.0" r="2.20" fill="#3aa85a"/>
      <circle cx="350.9" cy="197.7" r="1.45" fill="#3aa85a"/>
      <circle cx="342.6" cy="187.7" r="2.00" fill="#3aa85a"/>
      <circle cx="353.6" cy="194.2" r="1.34" fill="#3aa85a"/>
      <circle cx="353.5" cy="200.8" r="2.71" fill="#3aa85a"/>
      <circle cx="350.5" cy="195.4" r="2.26" fill="#3aa85a"/>
      <circle cx="350.9" cy="192.6" r="1.42" fill="#3aa85a"/>
      <circle cx="341.1" cy="200.2" r="1.61" fill="#3aa85a"/>
      <circle cx="385.0" cy="192.8" r="1.47" fill="#3aa85a"/>
      <circle cx="386.8" cy="185.5" r="1.44" fill="#3aa85a"/>
      <circle cx="387.9" cy="197.7" r="2.54" fill="#3aa85a"/>
      <circle cx="384.6" cy="185.0" r="1.50" fill="#3aa85a"/>
      <circle cx="390.4" cy="194.0" r="1.64" fill="#3aa85a"/>
      <circle cx="424.2" cy="187.3" r="1.31" fill="#3aa85a"/>
      <circle cx="414.4" cy="189.4" r="1.72" fill="#3aa85a"/>
      <circle cx="421.3" cy="195.7" r="1.94" fill="#3aa85a"/>
      <circle cx="419.4" cy="201.1" r="1.54" fill="#3aa85a"/>
      <circle cx="420.2" cy="191.3" r="1.30" fill="#3aa85a"/>
      <circle cx="424.3" cy="192.0" r="2.89" fill="#3aa85a"/>
      <circle cx="420.0" cy="205.5" r="2.72" fill="#3aa85a"/>
      <circle cx="16.2" cy="226.4" r="1.67" fill="#3aa85a"/>
      <circle cx="18.3" cy="228.5" r="1.30" fill="#3aa85a"/>
      <circle cx="22.7" cy="224.2" r="1.56" fill="#3aa85a"/>
      <circle cx="20.2" cy="232.1" r="1.91" fill="#3aa85a"/>
      <circle cx="11.6" cy="238.2" r="1.30" fill="#3aa85a"/>
      <circle cx="50.5" cy="220.9" r="1.48" fill="#3aa85a"/>
      <circle cx="55.5" cy="224.0" r="1.69" fill="#3aa85a"/>
      <circle cx="49.3" cy="234.6" r="1.38" fill="#3aa85a"/>
      <circle cx="61.1" cy="235.6" r="1.65" fill="#3aa85a"/>
      <circle cx="50.3" cy="234.3" r="1.38" fill="#3aa85a"/>
      <circle cx="54.7" cy="235.2" r="2.89" fill="#3aa85a"/>
      <circle cx="87.9" cy="220.0" r="1.35" fill="#3aa85a"/>
      <circle cx="92.2" cy="230.9" r="1.33" fill="#3aa85a"/>
      <circle cx="89.2" cy="219.6" r="2.31" fill="#3aa85a"/>
      <circle cx="102.3" cy="228.1" r="1.96" fill="#3aa85a"/>
      <circle cx="90.1" cy="224.4" r="1.41" fill="#3aa85a"/>
      <circle cx="91.1" cy="231.9" r="2.05" fill="#3aa85a"/>
      <circle cx="91.1" cy="228.5" r="1.47" fill="#3aa85a"/>
      <circle cx="129.9" cy="231.8" r="1.32" fill="#3aa85a"/>
      <circle cx="128.4" cy="230.0" r="1.74" fill="#3aa85a"/>
      <circle cx="122.3" cy="236.8" r="1.73" fill="#3aa85a"/>
      <circle cx="127.6" cy="229.7" r="1.42" fill="#3aa85a"/>
      <circle cx="136.2" cy="230.3" r="1.69" fill="#3aa85a"/>
      <circle cx="129.4" cy="221.3" r="1.31" fill="#3aa85a"/>
      <circle cx="161.9" cy="226.4" r="1.99" fill="#3aa85a"/>
      <circle cx="159.6" cy="238.3" r="2.23" fill="#3aa85a"/>
      <circle cx="163.7" cy="228.7" r="2.78" fill="#3aa85a"/>
      <circle cx="155.9" cy="234.4" r="1.30" fill="#3aa85a"/>
      <circle cx="166.2" cy="231.5" r="1.33" fill="#3aa85a"/>
      <circle cx="161.6" cy="237.3" r="1.45" fill="#3aa85a"/>
      <circle cx="174.2" cy="226.7" r="2.41" fill="#3aa85a"/>
      <circle cx="205.1" cy="240.2" r="1.39" fill="#3aa85a"/>
      <circle cx="196.9" cy="225.5" r="1.31" fill="#3aa85a"/>
      <circle cx="197.5" cy="225.2" r="1.78" fill="#3aa85a"/>
      <circle cx="204.9" cy="236.3" r="2.58" fill="#3aa85a"/>
      <circle cx="196.3" cy="238.9" r="1.30" fill="#3aa85a"/>
      <circle cx="202.3" cy="229.6" r="2.72" fill="#3aa85a"/>
      <circle cx="202.1" cy="227.4" r="1.35" fill="#3aa85a"/>
      <circle cx="238.1" cy="230.1" r="2.54" fill="#3aa85a"/>
      <circle cx="231.6" cy="228.3" r="1.41" fill="#3aa85a"/>
      <circle cx="238.6" cy="239.2" r="1.52" fill="#3aa85a"/>
      <circle cx="231.1" cy="232.5" r="1.33" fill="#3aa85a"/>
      <circle cx="233.9" cy="232.9" r="1.45" fill="#3aa85a"/>
      <circle cx="244.2" cy="237.7" r="1.43" fill="#3aa85a"/>
      <circle cx="242.1" cy="230.0" r="1.51" fill="#3aa85a"/>
      <circle cx="238.7" cy="224.6" r="1.31" fill="#3aa85a"/>
      <circle cx="272.1" cy="230.9" r="1.37" fill="#3aa85a"/>
      <circle cx="277.6" cy="232.1" r="1.49" fill="#3aa85a"/>
      <circle cx="273.0" cy="228.5" r="2.46" fill="#3aa85a"/>
      <circle cx="276.9" cy="233.3" r="1.78" fill="#3aa85a"/>
      <circle cx="271.8" cy="238.0" r="1.65" fill="#3aa85a"/>
      <circle cx="269.5" cy="229.8" r="1.42" fill="#3aa85a"/>
      <circle cx="315.3" cy="232.6" r="1.59" fill="#3aa85a"/>
      <circle cx="312.0" cy="236.7" r="1.30" fill="#3aa85a"/>
      <circle cx="310.4" cy="236.7" r="2.40" fill="#3aa85a"/>
      <circle cx="310.2" cy="227.5" r="1.30" fill="#3aa85a"/>
      <circle cx="312.8" cy="231.2" r="1.39" fill="#3aa85a"/>
      <circle cx="348.7" cy="226.3" r="1.51" fill="#3aa85a"/>
      <circle cx="346.4" cy="229.4" r="1.74" fill="#3aa85a"/>
      <circle cx="353.3" cy="232.8" r="2.19" fill="#3aa85a"/>
      <circle cx="346.3" cy="241.0" r="1.99" fill="#3aa85a"/>
      <circle cx="356.2" cy="237.6" r="1.51" fill="#3aa85a"/>
      <circle cx="349.4" cy="226.7" r="2.69" fill="#3aa85a"/>
      <circle cx="348.4" cy="228.1" r="1.66" fill="#3aa85a"/>
      <circle cx="386.4" cy="230.7" r="1.44" fill="#3aa85a"/>
      <circle cx="380.0" cy="231.1" r="1.83" fill="#3aa85a"/>
      <circle cx="381.4" cy="229.9" r="1.85" fill="#3aa85a"/>
      <circle cx="390.7" cy="239.6" r="2.12" fill="#3aa85a"/>
      <circle cx="383.9" cy="233.8" r="2.36" fill="#3aa85a"/>
      <circle cx="420.8" cy="227.1" r="2.32" fill="#3aa85a"/>
      <circle cx="416.6" cy="235.7" r="2.83" fill="#3aa85a"/>
      <circle cx="414.1" cy="225.9" r="2.09" fill="#3aa85a"/>
      <circle cx="421.6" cy="230.0" r="1.61" fill="#3aa85a"/>
      <circle cx="430.1" cy="228.5" r="2.22" fill="#3aa85a"/>
      <circle cx="414.7" cy="226.6" r="1.79" fill="#3aa85a"/>
      <circle cx="425.0" cy="236.4" r="1.86" fill="#3aa85a"/>
      <circle cx="422.5" cy="228.9" r="1.99" fill="#3aa85a"/>
    </g>
    <rect x="330" y="106.3" width="36.7" height="35.4" fill="none" stroke="#78b4ff" stroke-width="2.5"/>
  </svg>
  <rect x="1096" y="250" width="440" height="248" fill="none" stroke="#2a2a30" stroke-width="1.5"/>

  <!-- captions -->
  <text x="284"  y="524" fill="#ece8df" font-size="19" font-weight="300" text-anchor="middle">One video frame</text>
  <text x="800"  y="524" fill="#ece8df" font-size="19" font-weight="300" text-anchor="middle">A sampling grid reads each region's color</text>
  <text x="1316" y="524" fill="#ece8df" font-size="19" font-weight="300" text-anchor="middle">Each region becomes a cluster of points</text>
  <text x="284"  y="548" fill="#6b665e" font-size="13" text-anchor="middle" font-family="ui-monospace,'SF Mono',Menlo,monospace">reference frame 1920 × 1080</text>
  <text x="800"  y="548" fill="#6b665e" font-size="13" text-anchor="middle" font-family="ui-monospace,'SF Mono',Menlo,monospace">illustrative grid — actual default 417 × 235 regions</text>
  <text x="1316" y="548" fill="#6b665e" font-size="13" text-anchor="middle" font-family="ui-monospace,'SF Mono',Menlo,monospace">points share the region color</text>

  <!-- one region -> seven points callout -->
  <line x1="1444" y1="392" x2="1410" y2="590" stroke="#4d7fe0" stroke-width="1.4" stroke-dasharray="4 4"/>
  <circle cx="1380" cy="662" r="74" fill="#0f0f12" stroke="#4d7fe0" stroke-width="1.5"/>
  <g fill="#d8493a">
    <circle cx="1380" cy="662" r="10"/>
    <circle cx="1416" cy="662" r="10"/>
    <circle cx="1398" cy="693" r="10"/>
    <circle cx="1362" cy="693" r="10"/>
    <circle cx="1344" cy="662" r="10"/>
    <circle cx="1362" cy="631" r="10"/>
    <circle cx="1398" cy="631" r="10"/>
  </g>
  <text x="1380" y="770" fill="#9a948a" font-size="15" font-weight="300" text-anchor="middle">One sampled region becomes seven points</text>
  <text x="1380" y="792" fill="#6b665e" font-size="13" text-anchor="middle" font-family="ui-monospace,'SF Mono',Menlo,monospace">default 7 per region · adjustable 1–8</text>

  <!-- footer -->
  <line x1="64" y1="824" x2="1056" y2="824" stroke="#1d1d20" stroke-width="1"/>
  <text x="64" y="852" fill="#9a948a" font-size="16" font-weight="300">685,965 points by default — 417 × 235 sampled regions × 7 points per region.</text>
  <text x="64" y="876" fill="#6b665e" font-size="13.5" font-weight="300">The browser version uses lower density for real-time performance. A renderer — not a filter, not AI, not a physics simulation.</text>
</svg>
